<svg width="67" height="12" viewBox="0 0 67 12" fill="none" xmlns="http://www.w3.org/2000/svg">
<path opacity="0.4" d="M62.2556 0.0126953C63.5161 0.140824 64.4998 1.20566 64.4998 2.5V8.83301C64.4998 10.2137 63.3805 11.333 61.9998 11.333H44.9998C43.6192 11.3328 42.4998 10.2136 42.4998 8.83301V2.5C42.4998 1.20581 43.4836 0.141021 44.7439 0.0126953L44.9998 0H61.9998L62.2556 0.0126953ZM44.9998 1C44.1715 1.00023 43.4998 1.67172 43.4998 2.5V8.83301C43.4998 9.66129 44.1715 10.3328 44.9998 10.333H61.9998C62.8282 10.333 63.4998 9.66143 63.4998 8.83301V2.5C63.4998 1.67157 62.8282 1 61.9998 1H44.9998ZM65.4998 3.66699C66.3045 4.00577 66.8279 4.79386 66.8279 5.66699C66.8277 6.53998 66.3044 7.32826 65.4998 7.66699V3.66699Z" fill="#171C21"/>
<rect x="44.5002" y="2" width="18" height="7.33333" rx="0.666667" fill="#171C21"/>
<path d="M27.4259 8.56513C28.7012 7.4865 30.5695 7.48666 31.8449 8.56513C31.909 8.6231 31.9465 8.7053 31.9484 8.7917C31.9501 8.87806 31.9162 8.96159 31.8546 9.02217L29.8575 11.0378C29.799 11.097 29.7191 11.1305 29.6359 11.1306C29.5526 11.1306 29.4727 11.097 29.4142 11.0378L27.4171 9.02217C27.3554 8.96152 27.3215 8.87819 27.3234 8.7917C27.3253 8.70531 27.3618 8.62306 27.4259 8.56513ZM24.7609 5.87666C27.5086 3.32091 31.7642 3.32075 34.5118 5.87666C34.5738 5.93653 34.6086 6.01904 34.6095 6.10517C34.6104 6.19142 34.5765 6.27446 34.5158 6.33564L33.3615 7.50263C33.2426 7.62137 33.0508 7.62394 32.9288 7.50849C32.0265 6.69141 30.8522 6.23889 29.6349 6.23896C28.4184 6.23947 27.2456 6.69196 26.3439 7.50849C26.2218 7.62429 26.0292 7.62167 25.9103 7.50263L24.756 6.33564C24.6952 6.27457 24.6614 6.19131 24.6622 6.10517C24.6631 6.01902 24.6989 5.93651 24.7609 5.87666ZM22.0968 3.19599C26.3112 -0.842915 32.9595 -0.842922 37.174 3.19599C37.2349 3.25599 37.2701 3.33798 37.2706 3.42353C37.271 3.50895 37.2371 3.59143 37.1769 3.65205L36.0206 4.81806C35.9015 4.93761 35.7089 4.9388 35.588 4.82099C33.9824 3.29453 31.8513 2.44321 29.6359 2.44306C27.4202 2.44306 25.2886 3.29441 23.6827 4.82099C23.562 4.93896 23.3692 4.93774 23.2501 4.81806L22.0939 3.65205C22.0337 3.59141 21.9997 3.50892 22.0001 3.42353C22.0007 3.33797 22.0358 3.25595 22.0968 3.19599Z" fill="#171C21"/>
<path d="M2 7.33362C2.55228 7.33362 3 7.78133 3 8.33362V10.3336C2.9998 10.8857 2.55216 11.3336 2 11.3336H1C0.447945 11.3335 0.000197789 10.8857 0 10.3336V8.33362C0 7.78141 0.447823 7.33374 1 7.33362H2ZM6.66602 5.33362C7.2183 5.33362 7.66602 5.78133 7.66602 6.33362V10.3336C7.66582 10.8857 7.21818 11.3336 6.66602 11.3336H5.66602C5.11396 11.3335 4.66621 10.8857 4.66602 10.3336V6.33362C4.66602 5.78141 5.11384 5.33374 5.66602 5.33362H6.66602ZM11.334 2.99963C11.8861 2.99963 12.3338 3.44752 12.334 3.99963V10.3336C12.3338 10.8858 11.8862 11.3336 11.334 11.3336H10.334C9.7819 11.3335 9.33414 10.8857 9.33398 10.3336V3.99963C9.33418 3.4476 9.78193 2.99976 10.334 2.99963H11.334ZM16 0.666626C16.5523 0.666626 17 1.11434 17 1.66663V10.3336C16.9998 10.8858 16.5522 11.3336 16 11.3336H15C14.4479 11.3335 14.0002 10.8857 14 10.3336V1.66663C14 1.11442 14.4478 0.666753 15 0.666626H16Z" fill="#171C21"/>
</svg>
